<svg display="none" xmlns="http://www.w3.org/2000/svg">
  <symbol id="email-icon" viewBox="0 0 512 512">
    <g><g><path d="M467,61H45C20.218,61,0,81.196,0,106v300c0,24.72,20.128,45,45,45h422c24.72,0,45-20.128,45-45V106
        C512,81.28,491.872,61,467,61z M460.786,91L256.954,294.833L51.359,91H460.786z M30,399.788V112.069l144.479,143.24L30,399.788z
        M51.213,421l144.57-144.57l50.657,50.222c5.864,5.814,15.327,5.795,21.167-0.046L317,277.213L460.787,421H51.213z M482,399.787
        L338.213,256L482,112.212V399.787z"/></g></g>
  </symbol>
  <symbol id="phone-icon" viewBox="0 0 512.021 512.021">
    <g><path d="m367.988 512.021c-16.528 0-32.916-2.922-48.941-8.744-70.598-25.646-136.128-67.416-189.508-120.795s-95.15-118.91-120.795-189.508c-8.241-22.688-10.673-46.108-7.226-69.612 3.229-22.016 11.757-43.389 24.663-61.809 12.963-18.501 30.245-33.889 49.977-44.5 21.042-11.315 44.009-17.053 68.265-17.053 7.544 0 14.064 5.271 15.645 12.647l25.114 117.199c1.137 5.307-.494 10.829-4.331 14.667l-42.913 42.912c40.482 80.486 106.17 146.174 186.656 186.656l42.912-42.913c3.838-3.837 9.361-5.466 14.667-4.331l117.199 25.114c7.377 1.581 12.647 8.101 12.647 15.645 0 24.256-5.738 47.224-17.054 68.266-10.611 19.732-25.999 37.014-44.5 49.977-18.419 12.906-39.792 21.434-61.809 24.663-6.899 1.013-13.797 1.518-20.668 1.519zm-236.349-479.321c-31.995 3.532-60.393 20.302-79.251 47.217-21.206 30.265-26.151 67.49-13.567 102.132 49.304 135.726 155.425 241.847 291.151 291.151 34.641 12.584 71.866 7.64 102.132-13.567 26.915-18.858 43.685-47.256 47.217-79.251l-95.341-20.43-44.816 44.816c-4.769 4.769-12.015 6.036-18.117 3.168-95.19-44.72-172.242-121.772-216.962-216.962-2.867-6.103-1.601-13.349 3.168-18.117l44.816-44.816z"/></g>
  </symbol>
  <symbol id="telegram-icon" viewBox="0 -39 512.00011 512">
    <path d="m504.09375 11.859375c-6.253906-7.648437-15.621094-11.859375-26.378906-11.859375-5.847656 0-12.042969 1.230469-18.410156 3.664062l-433.398438 165.441407c-23 8.777343-26.097656 21.949219-25.8984375 29.019531s4.0390625 20.046875 27.4999995 27.511719c.140626.042969.28125.085937.421876.125l89.898437 25.726562 48.617187 139.023438c6.628907 18.953125 21.507813 30.726562 38.835938 30.726562 10.925781 0 21.671875-4.578125 31.078125-13.234375l55.605469-51.199218 80.652344 64.941406c.007812.007812.019531.011718.027343.019531l.765625.617187c.070313.054688.144532.113282.214844.167969 8.964844 6.953125 18.75 10.625 28.308594 10.628907h.003906c18.675781 0 33.546875-13.824219 37.878906-35.214844l71.011719-350.640625c2.851563-14.074219.460937-26.667969-6.734375-35.464844zm-356.191406 234.742187 173.441406-88.605468-107.996094 114.753906c-1.769531 1.878906-3.023437 4.179688-3.640625 6.683594l-20.824219 84.351562zm68.132812 139.332032c-.71875.660156-1.441406 1.25-2.164062 1.792968l19.320312-78.25 35.144532 28.300782zm265.390625-344.566406-71.011719 350.644531c-.683593 3.355469-2.867187 11.164062-8.480468 11.164062-2.773438 0-6.257813-1.511719-9.824219-4.257812l-91.390625-73.585938c-.011719-.011719-.027344-.023437-.042969-.03125l-54.378906-43.789062 156.175781-165.949219c5-5.3125 5.453125-13.449219 1.074219-19.285156-4.382813-5.835938-12.324219-7.671875-18.820313-4.351563l-256.867187 131.226563-91.121094-26.070313 433.265625-165.390625c3.660156-1.398437 6.214844-1.691406 7.710938-1.691406.917968 0 2.550781.109375 3.15625.855469.796875.972656 1.8125 4.289062.554687 10.511719zm0 0"/>
  </symbol>

  <symbol id="github-icon" viewBox="0 0 511.074 511.074">
    <path d="M255.509,2.523C114.124,2.795-0.271,117.629,0,259.014c0.229,119.575,83.206,223.063,199.871,249.28
	c5.752,1.272,11.446-2.359,12.719-8.111c0.167-0.755,0.252-1.526,0.252-2.3v-58.027c0-5.891-4.776-10.667-10.667-10.667h-21.333
	c-26.624,0-44.8-25.237-60.736-47.509l-4.907-6.784c7.177,4.009,14.037,8.559,20.523,13.611
	c12.002,11.177,27.445,17.947,43.797,19.2c16.081,2.238,30.931-8.983,33.169-25.064c0.313-2.249,0.364-4.526,0.153-6.787v-7.445
	c0.001-4.766-3.16-8.955-7.744-10.261c-59.179-16.747-98.923-61.077-98.923-110.293c0.441-26.629,11.364-52.009,30.4-70.635
	c3.073-3.167,3.878-7.899,2.027-11.904c-7.761-17.576-6.594-37.812,3.136-54.379c14.974,6.031,28.355,15.434,39.104,27.477
	c2.893,3.433,7.627,4.687,11.84,3.136c40.626-14.648,85.092-14.648,125.717,0c4.195,1.521,8.893,0.269,11.776-3.136
	c10.74-12.049,24.114-21.459,39.083-27.499c9.73,16.567,10.897,36.803,3.136,54.379c-1.852,4.005-1.046,8.737,2.027,11.904
	c19.049,18.627,29.981,44.017,30.421,70.656c0,51.669-44.139,97.941-107.371,112.512c-5.741,1.32-9.326,7.044-8.006,12.785
	c0.208,0.904,0.532,1.776,0.966,2.596c5.976,13.43,8.632,28.101,7.744,42.773v79.36c0,5.891,4.776,10.667,10.667,10.667
	c0.775-0.003,1.547-0.089,2.304-0.256c137.945-30.999,224.642-167.955,193.643-305.899C478.572,85.729,375.084,2.753,255.509,2.523z
	"/>
  </symbol>
  <symbol id="move-up-icon" viewBox="0 0 512 512">
    <g>
     <g>
       <path d="M256,0C114.833,0,0,114.833,0,256s114.833,256,256,256s256-114.853,256-256S397.167,0,256,0z M256,472.341
         c-119.275,0-216.341-97.046-216.341-216.341S136.725,39.659,256,39.659c119.295,0,216.341,97.046,216.341,216.341
         S375.275,472.341,256,472.341z"/>
     </g>
   </g>
   <g>
     <g>
       <path d="M369.227,283.365l-99.148-99.148c-7.734-7.694-20.226-7.694-27.96,0l-99.148,99.148c-6.365,7.416-6.365,18.382,0,25.798
         c7.119,8.309,19.651,9.28,27.96,2.161L256,226.256l85.267,85.069c7.734,7.694,20.226,7.694,27.96,0
         C376.921,303.591,376.921,291.098,369.227,283.365z"/>
     </g>
   </g>
   <g>
  </symbol>
</svg>